<svg width="159" height="36" viewBox="0 0 159 36" fill="none" xmlns="http://www.w3.org/2000/svg">
<path d="M0.693237 18.3543C2.09324 19.5023 4.19324 20.2863 6.01324 20.2863C9.73724 20.2863 11.7252 18.3263 11.7252 15.8063C11.7252 13.2583 9.73724 12.2783 7.97324 11.6343C6.54524 11.1023 5.25724 10.7663 5.25724 9.87027C5.25724 9.17027 5.76124 8.77827 6.82524 8.77827C7.80524 8.77827 8.75724 9.22627 9.76524 9.95427L11.6132 7.49027C10.4092 6.59427 8.84124 5.72627 6.71324 5.72627C3.49324 5.72627 1.39324 7.49027 1.39324 10.0663C1.39324 12.3623 3.38124 13.5103 5.06124 14.1543C6.48924 14.7143 7.88924 15.1343 7.88924 16.0583C7.88924 16.7863 7.35724 17.2343 6.12524 17.2343C4.94924 17.2343 3.80124 16.7303 2.54124 15.7783L0.693237 18.3543Z" fill="black"/>
<path d="M14.3393 15.6383C14.3393 18.4383 15.2913 20.2863 18.1193 20.2863C19.0433 20.2863 19.7433 20.1463 20.1913 19.9503L19.6873 16.8983C19.4633 16.9543 19.3513 16.9543 19.1833 16.9543C18.8473 16.9543 18.4553 16.6743 18.4553 15.8063V0.322266H14.3393V15.6383Z" fill="black"/>
<path d="M21.539 13.0063C21.539 17.6263 24.787 20.2863 28.315 20.2863C31.815 20.2863 35.063 17.6263 35.063 13.0063C35.063 8.38627 31.815 5.72627 28.315 5.72627C24.787 5.72627 21.539 8.38627 21.539 13.0063ZM25.767 13.0063C25.767 10.5983 26.607 9.05827 28.315 9.05827C29.995 9.05827 30.863 10.5983 30.863 13.0063C30.863 15.4143 29.995 16.9543 28.315 16.9543C26.607 16.9543 25.767 15.4143 25.767 13.0063Z" fill="black"/>
<path d="M40.8555 19.9503H45.6155L50.1515 6.06227H46.2035L44.3835 12.6143C44.0195 13.9863 43.6555 15.4423 43.3195 16.8983H43.2075C42.8435 15.4423 42.4795 13.9863 42.1155 12.6143L40.3235 6.06227H36.1795L40.8555 19.9503Z" fill="black"/>
<path d="M51.289 13.0063C51.289 17.5983 54.341 20.2863 58.317 20.2863C59.969 20.2863 61.817 19.6983 63.245 18.7183L61.873 16.2263C60.865 16.8423 59.913 17.1503 58.877 17.1503C57.029 17.1503 55.629 16.2263 55.265 14.1263H63.581C63.665 13.7903 63.749 13.1183 63.749 12.3903C63.749 8.61027 61.789 5.72627 57.841 5.72627C54.509 5.72627 51.289 8.49827 51.289 13.0063ZM55.237 11.5783C55.517 9.73027 56.637 8.86227 57.925 8.86227C59.577 8.86227 60.249 9.98227 60.249 11.5783H55.237Z" fill="black"/>
<path d="M66.5932 19.9503H70.7092V10.5703C71.6052 9.70226 72.2492 9.22627 73.2852 9.22627C74.4612 9.22627 74.9932 9.84227 74.9932 11.8583V19.9503H79.1092V11.3263C79.1092 7.85427 77.8212 5.72627 74.7972 5.72627C72.9212 5.72627 71.5212 6.70627 70.3452 7.82627H70.2332L69.9532 6.06227H66.5932V19.9503Z" fill="black"/>
<path d="M81.3846 18.3543C82.7846 19.5023 84.8846 20.2863 86.7046 20.2863C90.4286 20.2863 92.4166 18.3263 92.4166 15.8063C92.4166 13.2583 90.4286 12.2783 88.6646 11.6343C87.2366 11.1023 85.9486 10.7663 85.9486 9.87027C85.9486 9.17027 86.4526 8.77827 87.5166 8.77827C88.4967 8.77827 89.4486 9.22627 90.4566 9.95427L92.3046 7.49027C91.1006 6.59427 89.5326 5.72627 87.4046 5.72627C84.1846 5.72627 82.0846 7.49027 82.0846 10.0663C82.0846 12.3623 84.0726 13.5103 85.7526 14.1543C87.1806 14.7143 88.5807 15.1343 88.5807 16.0583C88.5807 16.7863 88.0486 17.2343 86.8166 17.2343C85.6406 17.2343 84.4926 16.7303 83.2326 15.7783L81.3846 18.3543Z" fill="black"/>
<path d="M95.0307 19.9503H99.0347V16.5343L100.799 14.5463L103.935 19.9503H108.387L103.151 11.7743L108.023 6.06227H103.543L99.1467 11.5783H99.0347V0.322266H95.0307V19.9503Z" fill="black"/>
<path d="M108.766 13.0063C108.766 17.6263 112.014 20.2863 115.542 20.2863C119.042 20.2863 122.29 17.6263 122.29 13.0063C122.29 8.38627 119.042 5.72627 115.542 5.72627C112.014 5.72627 108.766 8.38627 108.766 13.0063ZM112.994 13.0063C112.994 10.5983 113.834 9.05827 115.542 9.05827C117.222 9.05827 118.09 10.5983 118.09 13.0063C118.09 15.4143 117.222 16.9543 115.542 16.9543C113.834 16.9543 112.994 15.4143 112.994 13.0063Z" fill="black"/>
<path d="M124.723 17.7103C124.723 19.1663 125.787 20.2863 127.215 20.2863C128.643 20.2863 129.707 19.1663 129.707 17.7103C129.707 16.2263 128.643 15.1063 127.215 15.1063C125.787 15.1063 124.723 16.2263 124.723 17.7103Z" fill="black"/>
<path d="M131.998 18.3543C133.398 19.5023 135.498 20.2863 137.318 20.2863C141.042 20.2863 143.03 18.3263 143.03 15.8063C143.03 13.2583 141.042 12.2783 139.278 11.6343C137.85 11.1023 136.562 10.7663 136.562 9.87027C136.562 9.17027 137.066 8.77827 138.13 8.77827C139.11 8.77827 140.062 9.22627 141.07 9.95427L142.918 7.49027C141.714 6.59427 140.146 5.72627 138.018 5.72627C134.798 5.72627 132.698 7.49027 132.698 10.0663C132.698 12.3623 134.686 13.5103 136.366 14.1543C137.794 14.7143 139.194 15.1343 139.194 16.0583C139.194 16.7863 138.662 17.2343 137.43 17.2343C136.254 17.2343 135.106 16.7303 133.846 15.7783L131.998 18.3543Z" fill="black"/>
<path d="M145.644 19.9503H149.648V16.5343L151.412 14.5463L154.548 19.9503H159L153.764 11.7743L158.636 6.06227H154.156L149.76 11.5783H149.648V0.322266H145.644V19.9503Z" fill="black"/>
<path d="M12.7518 26.459V31.0781C12.7518 31.8919 12.5061 32.5316 12.0145 32.9971C11.523 33.4626 10.8475 33.6953 9.98816 33.6953C9.12878 33.6953 8.46309 33.4609 7.99109 32.9922C7.52234 32.5234 7.28796 31.8789 7.28796 31.0586V26.459H8.11804V31.1172C8.11804 31.7129 8.2808 32.1702 8.60632 32.4893C8.93184 32.8083 9.41036 32.9678 10.0419 32.9678C10.6441 32.9678 11.108 32.8083 11.4335 32.4893C11.759 32.167 11.9218 31.7064 11.9218 31.1074V26.459H12.7518ZM9.30945 25.7656C9.4657 25.5638 9.63334 25.3197 9.81238 25.0332C9.99467 24.7467 10.1379 24.4977 10.2421 24.2861H11.2284V24.3887C11.0852 24.6003 10.8719 24.8607 10.5887 25.1699C10.3055 25.4792 10.0598 25.7184 9.85144 25.8877H9.30945V25.7656Z" fill="black"/>
<path d="M17.9764 32.1377C17.9764 32.6357 17.7909 33.0199 17.4198 33.29C17.0487 33.5602 16.5279 33.6953 15.8573 33.6953C15.1477 33.6953 14.5943 33.583 14.1971 33.3584V32.6064C14.4543 32.7367 14.7294 32.8392 15.0223 32.9141C15.3186 32.9889 15.6034 33.0264 15.8768 33.0264C16.3 33.0264 16.6255 32.9596 16.8534 32.8262C17.0813 32.6895 17.1952 32.4827 17.1952 32.2061C17.1952 31.9977 17.104 31.8203 16.9218 31.6738C16.7427 31.5241 16.3912 31.3483 15.8671 31.1465C15.369 30.9609 15.0142 30.7998 14.8026 30.6631C14.5943 30.5231 14.438 30.3652 14.3339 30.1895C14.233 30.0137 14.1825 29.8037 14.1825 29.5596C14.1825 29.1234 14.3599 28.7799 14.7147 28.5293C15.0695 28.2754 15.5562 28.1484 16.1747 28.1484C16.7509 28.1484 17.314 28.2656 17.8641 28.5L17.576 29.1592C17.0389 28.9378 16.5523 28.8271 16.1161 28.8271C15.732 28.8271 15.4423 28.8874 15.2469 29.0078C15.0516 29.1283 14.954 29.2943 14.954 29.5059C14.954 29.6491 14.9898 29.7712 15.0614 29.8721C15.1363 29.973 15.2551 30.069 15.4178 30.1602C15.5806 30.2513 15.8931 30.3831 16.3553 30.5557C16.9901 30.7868 17.4182 31.0195 17.6395 31.2539C17.8641 31.4883 17.9764 31.7829 17.9764 32.1377Z" fill="black"/>
<path d="M21.0282 33.0264C21.1714 33.0264 21.3098 33.0166 21.4432 32.9971C21.5767 32.9743 21.6825 32.9515 21.7606 32.9287V33.5488C21.6727 33.5911 21.5425 33.6253 21.37 33.6514C21.2007 33.6807 21.0477 33.6953 20.911 33.6953C19.8759 33.6953 19.3583 33.1501 19.3583 32.0596V28.876H18.5917V28.4854L19.3583 28.1484L19.7001 27.0059H20.1688V28.2461H21.7216V28.876H20.1688V32.0254C20.1688 32.3477 20.2453 32.5951 20.3983 32.7676C20.5513 32.9401 20.7613 33.0264 21.0282 33.0264Z" fill="black"/>
<path d="M25.2762 28.1484C25.5139 28.1484 25.7271 28.168 25.9159 28.207L25.8036 28.959C25.5822 28.9102 25.3869 28.8857 25.2177 28.8857C24.7847 28.8857 24.4136 29.0615 24.1044 29.4131C23.7984 29.7646 23.6454 30.2025 23.6454 30.7266V33.5977H22.8348V28.2461H23.5038L23.5966 29.2373H23.6356C23.8342 28.889 24.0734 28.6204 24.3534 28.4316C24.6333 28.2428 24.941 28.1484 25.2762 28.1484Z" fill="black"/>
<path d="M29.1776 33.6953C28.3866 33.6953 27.7616 33.4544 27.3026 32.9727C26.8469 32.4909 26.619 31.8219 26.619 30.9658C26.619 30.1032 26.8306 29.418 27.2538 28.9102C27.6802 28.4023 28.2515 28.1484 28.9677 28.1484C29.6382 28.1484 30.1688 28.3698 30.5594 28.8125C30.9501 29.252 31.1454 29.833 31.1454 30.5557V31.0684H27.4589C27.4751 31.6966 27.633 32.1735 27.9325 32.499C28.2352 32.8245 28.66 32.9873 29.2069 32.9873C29.7831 32.9873 30.3527 32.8669 30.9159 32.626V33.3486C30.6294 33.4723 30.3576 33.5602 30.1005 33.6123C29.8466 33.6676 29.5389 33.6953 29.1776 33.6953ZM28.9579 28.8271C28.5282 28.8271 28.1848 28.9671 27.9276 29.2471C27.6737 29.527 27.524 29.9144 27.4784 30.4092H30.2762C30.2762 29.8981 30.1623 29.5075 29.9344 29.2373C29.7066 28.9639 29.3811 28.8271 28.9579 28.8271Z" fill="black"/>
<path d="M36.1747 32.8799H36.1307C35.7564 33.4235 35.1965 33.6953 34.451 33.6953C33.7512 33.6953 33.2059 33.4561 32.8153 32.9775C32.4279 32.499 32.2343 31.8187 32.2343 30.9365C32.2343 30.0544 32.4296 29.3691 32.8202 28.8809C33.2108 28.3926 33.7544 28.1484 34.451 28.1484C35.177 28.1484 35.7336 28.4121 36.121 28.9395H36.1844L36.1503 28.5537L36.1307 28.1777V26H36.9413V33.5977H36.2821L36.1747 32.8799ZM34.5536 33.0166C35.107 33.0166 35.5074 32.8669 35.7548 32.5674C36.0054 32.2646 36.1307 31.778 36.1307 31.1074V30.9365C36.1307 30.1781 36.0038 29.6377 35.7499 29.3154C35.4992 28.9899 35.0972 28.8271 34.5438 28.8271C34.0686 28.8271 33.704 29.0127 33.4501 29.3838C33.1994 29.7516 33.0741 30.2725 33.0741 30.9463C33.0741 31.6299 33.1994 32.1458 33.4501 32.4941C33.7007 32.8424 34.0686 33.0166 34.5536 33.0166Z" fill="black"/>
<path d="M42.327 33.5977V30.1357C42.327 29.6995 42.2277 29.374 42.0292 29.1592C41.8306 28.9443 41.5197 28.8369 41.0966 28.8369C40.5367 28.8369 40.1265 28.9883 39.8661 29.291C39.6057 29.5938 39.4755 30.0934 39.4755 30.79V33.5977H38.6649V28.2461H39.3241L39.4559 28.9785H39.495C39.661 28.7148 39.8938 28.5114 40.1932 28.3682C40.4927 28.2217 40.8264 28.1484 41.1942 28.1484C41.8387 28.1484 42.3238 28.3047 42.6493 28.6172C42.9748 28.9264 43.1376 29.4229 43.1376 30.1064V33.5977H42.327Z" fill="black"/>
<path d="M43.9579 28.2461H44.827L45.9989 31.2979C46.2561 31.9945 46.4156 32.4974 46.4774 32.8066H46.5165C46.5588 32.6406 46.6467 32.3574 46.7802 31.957C46.9169 31.5534 47.3596 30.3164 48.1083 28.2461H48.9774L46.6776 34.3398C46.4497 34.9421 46.1828 35.3685 45.8768 35.6191C45.5741 35.873 45.2014 36 44.7587 36C44.5113 36 44.2671 35.9723 44.0262 35.917V35.2676C44.2053 35.3066 44.4055 35.3262 44.6268 35.3262C45.1835 35.3262 45.5806 35.0137 45.8182 34.3887L46.1161 33.627L43.9579 28.2461ZM45.955 27.416C46.1112 27.2142 46.2789 26.9701 46.4579 26.6836C46.6402 26.3971 46.7834 26.1481 46.8876 25.9365H47.8739V26.0391C47.7307 26.2507 47.5175 26.5111 47.2343 26.8203C46.951 27.1296 46.7053 27.3688 46.4969 27.5381H45.955V27.416Z" fill="black"/>
<path d="M54.9344 33.6953C54.5861 33.6953 54.2671 33.6318 53.9774 33.5049C53.691 33.3747 53.4501 33.1761 53.2548 32.9092H53.1962C53.2352 33.2217 53.2548 33.5179 53.2548 33.7979V36H52.4442V28.2461H53.1034L53.2157 28.9785H53.2548C53.4631 28.6855 53.7056 28.474 53.9823 28.3438C54.259 28.2135 54.5764 28.1484 54.9344 28.1484C55.6441 28.1484 56.191 28.391 56.5751 28.876C56.9624 29.361 57.1561 30.0413 57.1561 30.917C57.1561 31.7959 56.9592 32.4795 56.5653 32.9678C56.1747 33.4528 55.6311 33.6953 54.9344 33.6953ZM54.8173 28.8369C54.2704 28.8369 53.8749 28.9883 53.6307 29.291C53.3866 29.5938 53.2613 30.0755 53.2548 30.7363V30.917C53.2548 31.6689 53.3801 32.2077 53.6307 32.5332C53.8814 32.8555 54.2834 33.0166 54.8368 33.0166C55.299 33.0166 55.6604 32.8294 55.9208 32.4551C56.1844 32.0807 56.3163 31.5648 56.3163 30.9072C56.3163 30.2399 56.1844 29.7288 55.9208 29.374C55.6604 29.016 55.2925 28.8369 54.8173 28.8369Z" fill="black"/>
<path d="M63.1962 30.917C63.1962 31.7894 62.9764 32.4714 62.537 32.9629C62.0975 33.4512 61.4904 33.6953 60.7157 33.6953C60.2372 33.6953 59.8124 33.583 59.4413 33.3584C59.0702 33.1338 58.7837 32.8115 58.5819 32.3916C58.3801 31.9717 58.2792 31.4801 58.2792 30.917C58.2792 30.0446 58.4973 29.3659 58.9335 28.8809C59.3697 28.3926 59.9751 28.1484 60.7499 28.1484C61.4986 28.1484 62.0927 28.3975 62.5321 28.8955C62.9748 29.3936 63.1962 30.0674 63.1962 30.917ZM59.119 30.917C59.119 31.6006 59.2557 32.1214 59.5292 32.4795C59.8026 32.8376 60.2046 33.0166 60.7352 33.0166C61.2658 33.0166 61.6678 32.8392 61.9413 32.4844C62.218 32.1263 62.3563 31.6038 62.3563 30.917C62.3563 30.2367 62.218 29.7207 61.9413 29.3691C61.6678 29.0143 61.2626 28.8369 60.7255 28.8369C60.1949 28.8369 59.7945 29.0111 59.5243 29.3594C59.2541 29.7077 59.119 30.2269 59.119 30.917Z" fill="black"/>
<path d="M67.0634 28.1484C67.301 28.1484 67.5142 28.168 67.703 28.207L67.5907 28.959C67.3693 28.9102 67.174 28.8857 67.0048 28.8857C66.5718 28.8857 66.2007 29.0615 65.8915 29.4131C65.5855 29.7646 65.4325 30.2025 65.4325 30.7266V33.5977H64.6219V28.2461H65.2909L65.3837 29.2373H65.4227C65.6213 28.889 65.8606 28.6204 66.1405 28.4316C66.4205 28.2428 66.7281 28.1484 67.0634 28.1484Z" fill="black"/>
<path d="M70.4325 33.0264C70.5757 33.0264 70.7141 33.0166 70.8475 32.9971C70.981 32.9743 71.0868 32.9515 71.1649 32.9287V33.5488C71.077 33.5911 70.9468 33.6253 70.7743 33.6514C70.605 33.6807 70.452 33.6953 70.3153 33.6953C69.2802 33.6953 68.7626 33.1501 68.7626 32.0596V28.876H67.996V28.4854L68.7626 28.1484L69.1044 27.0059H69.5731V28.2461H71.1259V28.876H69.5731V32.0254C69.5731 32.3477 69.6496 32.5951 69.8026 32.7676C69.9556 32.9401 70.1656 33.0264 70.4325 33.0264Z" fill="black"/>
<path d="M75.5302 33.5977L75.369 32.8359H75.33C75.063 33.1712 74.7961 33.3991 74.5292 33.5195C74.2655 33.6367 73.9351 33.6953 73.538 33.6953C73.0074 33.6953 72.5907 33.5586 72.288 33.2852C71.9885 33.0117 71.8387 32.6227 71.8387 32.1182C71.8387 31.0374 72.703 30.471 74.4315 30.4189L75.3397 30.3896V30.0576C75.3397 29.6377 75.2486 29.3285 75.0663 29.1299C74.8872 28.9281 74.5992 28.8271 74.202 28.8271C73.7561 28.8271 73.2515 28.9639 72.6884 29.2373L72.4393 28.6172C72.703 28.474 72.9911 28.3617 73.3036 28.2803C73.6193 28.1989 73.9351 28.1582 74.2509 28.1582C74.8889 28.1582 75.3609 28.2998 75.6669 28.583C75.9761 28.8662 76.1307 29.3203 76.1307 29.9453V33.5977H75.5302ZM73.6991 33.0264C74.2037 33.0264 74.5992 32.888 74.8856 32.6113C75.1753 32.3346 75.3202 31.9473 75.3202 31.4492V30.9658L74.5096 31C73.8651 31.0228 73.3996 31.1237 73.1132 31.3027C72.83 31.4785 72.6884 31.7536 72.6884 32.1279C72.6884 32.4209 72.7762 32.6439 72.952 32.7969C73.1311 32.9499 73.3801 33.0264 73.6991 33.0264ZM73.5087 27.416C73.6649 27.2142 73.8326 26.9701 74.0116 26.6836C74.1939 26.3971 74.3371 26.1481 74.4413 25.9365H75.4276V26.0391C75.2844 26.2507 75.0712 26.5111 74.788 26.8203C74.5048 27.1296 74.259 27.3688 74.0507 27.5381H73.5087V27.416Z" fill="black"/>
<path d="M78.6161 33.5977H77.8055V26H78.6161V33.5977Z" fill="black"/>
<path d="M84.1044 33.5977L82.0731 28.2461H82.9423L84.0946 31.4199C84.355 32.1621 84.508 32.6439 84.5536 32.8652H84.5927C84.6285 32.6927 84.7408 32.3363 84.9296 31.7959C85.1216 31.2523 85.5497 30.069 86.2137 28.2461H87.0829L85.0516 33.5977H84.1044Z" fill="black"/>
<path d="M90.203 33.6953C89.412 33.6953 88.787 33.4544 88.328 32.9727C87.8723 32.4909 87.6444 31.8219 87.6444 30.9658C87.6444 30.1032 87.856 29.418 88.2792 28.9102C88.7056 28.4023 89.2769 28.1484 89.993 28.1484C90.6636 28.1484 91.1942 28.3698 91.5848 28.8125C91.9755 29.252 92.1708 29.833 92.1708 30.5557V31.0684H88.4843C88.5005 31.6966 88.6584 32.1735 88.9579 32.499C89.2606 32.8245 89.6854 32.9873 90.2323 32.9873C90.8085 32.9873 91.3781 32.8669 91.9413 32.626V33.3486C91.6548 33.4723 91.383 33.5602 91.1259 33.6123C90.8719 33.6676 90.5643 33.6953 90.203 33.6953ZM89.9833 28.8271C89.5536 28.8271 89.2102 28.9671 88.953 29.2471C88.6991 29.527 88.5494 29.9144 88.5038 30.4092H91.3016C91.3016 29.8981 91.1877 29.5075 90.9598 29.2373C90.732 28.9639 90.4065 28.8271 89.9833 28.8271Z" fill="black"/>
<path d="M95.9989 28.1484C96.2365 28.1484 96.4497 28.168 96.6385 28.207L96.5262 28.959C96.3049 28.9102 96.1096 28.8857 95.9403 28.8857C95.5074 28.8857 95.1363 29.0615 94.827 29.4131C94.521 29.7646 94.368 30.2025 94.368 30.7266V33.5977H93.5575V28.2461H94.2264L94.3192 29.2373H94.3583C94.5568 28.889 94.7961 28.6204 95.076 28.4316C95.356 28.2428 95.6636 28.1484 95.9989 28.1484Z" fill="black"/>
<path d="M99.9003 33.6953C99.1093 33.6953 98.4843 33.4544 98.0253 32.9727C97.5695 32.4909 97.3417 31.8219 97.3417 30.9658C97.3417 30.1032 97.5533 29.418 97.9764 28.9102C98.4029 28.4023 98.9742 28.1484 99.6903 28.1484C100.361 28.1484 100.891 28.3698 101.282 28.8125C101.673 29.252 101.868 29.833 101.868 30.5557V31.0684H98.1815C98.1978 31.6966 98.3557 32.1735 98.6552 32.499C98.9579 32.8245 99.3827 32.9873 99.9296 32.9873C100.506 32.9873 101.075 32.8669 101.639 32.626V33.3486C101.352 33.4723 101.08 33.5602 100.823 33.6123C100.569 33.6676 100.262 33.6953 99.9003 33.6953ZM99.6805 28.8271C99.2509 28.8271 98.9074 28.9671 98.6503 29.2471C98.3964 29.527 98.2466 29.9144 98.201 30.4092H100.999C100.999 29.8981 100.885 29.5075 100.657 29.2373C100.429 28.9639 100.104 28.8271 99.6805 28.8271Z" fill="black"/>
<path d="M102.605 36C102.296 36 102.045 35.9593 101.853 35.8779V35.2188C102.078 35.2839 102.299 35.3164 102.517 35.3164C102.771 35.3164 102.957 35.2464 103.074 35.1064C103.195 34.9697 103.255 34.7598 103.255 34.4766V28.2461H104.065V34.418C104.065 35.4727 103.579 36 102.605 36ZM103.186 26.7959C103.186 26.6104 103.232 26.4753 103.323 26.3906C103.414 26.3027 103.528 26.2588 103.665 26.2588C103.795 26.2588 103.907 26.3027 104.002 26.3906C104.096 26.4785 104.143 26.6136 104.143 26.7959C104.143 26.9782 104.096 27.1149 104.002 27.2061C103.907 27.2939 103.795 27.3379 103.665 27.3379C103.528 27.3379 103.414 27.2939 103.323 27.2061C103.232 27.1149 103.186 26.9782 103.186 26.7959Z" fill="black"/>
<path d="M109.446 33.5977V30.1357C109.446 29.6995 109.347 29.374 109.148 29.1592C108.95 28.9443 108.639 28.8369 108.216 28.8369C107.656 28.8369 107.246 28.9883 106.985 29.291C106.725 29.5938 106.595 30.0934 106.595 30.79V33.5977H105.784V28.2461H106.443L106.575 28.9785H106.614C106.78 28.7148 107.013 28.5114 107.312 28.3682C107.612 28.2217 107.946 28.1484 108.313 28.1484C108.958 28.1484 109.443 28.3047 109.768 28.6172C110.094 28.9264 110.257 29.4229 110.257 30.1064V33.5977H109.446Z" fill="black"/>
<path d="M114.187 33.6953C113.396 33.6953 112.771 33.4544 112.312 32.9727C111.857 32.4909 111.629 31.8219 111.629 30.9658C111.629 30.1032 111.84 29.418 112.264 28.9102C112.69 28.4023 113.261 28.1484 113.977 28.1484C114.648 28.1484 115.179 28.3698 115.569 28.8125C115.96 29.252 116.155 29.833 116.155 30.5557V31.0684H112.469C112.485 31.6966 112.643 32.1735 112.942 32.499C113.245 32.8245 113.67 32.9873 114.217 32.9873C114.793 32.9873 115.363 32.8669 115.926 32.626V33.3486C115.639 33.4723 115.367 33.5602 115.11 33.6123C114.856 33.6676 114.549 33.6953 114.187 33.6953ZM113.968 28.8271C113.538 28.8271 113.195 28.9671 112.937 29.2471C112.683 29.527 112.534 29.9144 112.488 30.4092H115.286C115.286 29.8981 115.172 29.5075 114.944 29.2373C114.716 28.9639 114.391 28.8271 113.968 28.8271Z" fill="black"/>
<path d="M116.892 36C116.583 36 116.333 35.9593 116.141 35.8779V35.2188C116.365 35.2839 116.586 35.3164 116.805 35.3164C117.058 35.3164 117.244 35.2464 117.361 35.1064C117.482 34.9697 117.542 34.7598 117.542 34.4766V28.2461H118.352V34.418C118.352 35.4727 117.866 36 116.892 36ZM117.474 26.7959C117.474 26.6104 117.519 26.4753 117.61 26.3906C117.701 26.3027 117.815 26.2588 117.952 26.2588C118.082 26.2588 118.195 26.3027 118.289 26.3906C118.383 26.4785 118.431 26.6136 118.431 26.7959C118.431 26.9782 118.383 27.1149 118.289 27.2061C118.195 27.2939 118.082 27.3379 117.952 27.3379C117.815 27.3379 117.701 27.2939 117.61 27.2061C117.519 27.1149 117.474 26.9782 117.474 26.7959Z" fill="black"/>
<path d="M126.121 32.1377C126.121 32.6357 125.935 33.0199 125.564 33.29C125.193 33.5602 124.672 33.6953 124.002 33.6953C123.292 33.6953 122.739 33.583 122.342 33.3584V32.6064C122.599 32.7367 122.874 32.8392 123.167 32.9141C123.463 32.9889 123.748 33.0264 124.021 33.0264C124.445 33.0264 124.77 32.9596 124.998 32.8262C125.226 32.6895 125.34 32.4827 125.34 32.2061C125.34 31.9977 125.249 31.8203 125.066 31.6738C124.887 31.5241 124.536 31.3483 124.012 31.1465C123.514 30.9609 123.159 30.7998 122.947 30.6631C122.739 30.5231 122.583 30.3652 122.478 30.1895C122.377 30.0137 122.327 29.8037 122.327 29.5596C122.327 29.1234 122.504 28.7799 122.859 28.5293C123.214 28.2754 123.701 28.1484 124.319 28.1484C124.895 28.1484 125.459 28.2656 126.009 28.5L125.721 29.1592C125.183 28.9378 124.697 28.8271 124.261 28.8271C123.877 28.8271 123.587 28.8874 123.391 29.0078C123.196 29.1283 123.099 29.2943 123.099 29.5059C123.099 29.6491 123.134 29.7712 123.206 29.8721C123.281 29.973 123.4 30.069 123.562 30.1602C123.725 30.2513 124.038 30.3831 124.5 30.5557C125.135 30.7868 125.563 31.0195 125.784 31.2539C126.009 31.4883 126.121 31.7829 126.121 32.1377Z" fill="black"/>
<path d="M129.934 33.6953C129.586 33.6953 129.267 33.6318 128.977 33.5049C128.691 33.3747 128.45 33.1761 128.255 32.9092H128.196C128.235 33.2217 128.255 33.5179 128.255 33.7979V36H127.444V28.2461H128.103L128.216 28.9785H128.255C128.463 28.6855 128.706 28.474 128.982 28.3438C129.259 28.2135 129.576 28.1484 129.934 28.1484C130.644 28.1484 131.191 28.391 131.575 28.876C131.962 29.361 132.156 30.0413 132.156 30.917C132.156 31.7959 131.959 32.4795 131.565 32.9678C131.175 33.4528 130.631 33.6953 129.934 33.6953ZM129.817 28.8369C129.27 28.8369 128.875 28.9883 128.631 29.291C128.387 29.5938 128.261 30.0755 128.255 30.7363V30.917C128.255 31.6689 128.38 32.2077 128.631 32.5332C128.881 32.8555 129.283 33.0166 129.837 33.0166C130.299 33.0166 130.66 32.8294 130.921 32.4551C131.184 32.0807 131.316 31.5648 131.316 30.9072C131.316 30.2399 131.184 29.7288 130.921 29.374C130.66 29.016 130.293 28.8369 129.817 28.8369Z" fill="black"/>
<path d="M136.018 28.1484C136.256 28.1484 136.469 28.168 136.658 28.207L136.546 28.959C136.324 28.9102 136.129 28.8857 135.96 28.8857C135.527 28.8857 135.156 29.0615 134.847 29.4131C134.541 29.7646 134.388 30.2025 134.388 30.7266V33.5977H133.577V28.2461H134.246L134.339 29.2373H134.378C134.576 28.889 134.816 28.6204 135.096 28.4316C135.376 28.2428 135.683 28.1484 136.018 28.1484Z" fill="black"/>
<path d="M140.95 33.5977L140.789 32.8359H140.75C140.483 33.1712 140.216 33.3991 139.949 33.5195C139.685 33.6367 139.355 33.6953 138.958 33.6953C138.427 33.6953 138.011 33.5586 137.708 33.2852C137.408 33.0117 137.259 32.6227 137.259 32.1182C137.259 31.0374 138.123 30.471 139.851 30.4189L140.76 30.3896V30.0576C140.76 29.6377 140.669 29.3285 140.486 29.1299C140.307 28.9281 140.019 28.8271 139.622 28.8271C139.176 28.8271 138.671 28.9639 138.108 29.2373L137.859 28.6172C138.123 28.474 138.411 28.3617 138.724 28.2803C139.039 28.1989 139.355 28.1582 139.671 28.1582C140.309 28.1582 140.781 28.2998 141.087 28.583C141.396 28.8662 141.551 29.3203 141.551 29.9453V33.5977H140.95ZM139.119 33.0264C139.624 33.0264 140.019 32.888 140.306 32.6113C140.595 32.3346 140.74 31.9473 140.74 31.4492V30.9658L139.93 31C139.285 31.0228 138.82 31.1237 138.533 31.3027C138.25 31.4785 138.108 31.7536 138.108 32.1279C138.108 32.4209 138.196 32.6439 138.372 32.7969C138.551 32.9499 138.8 33.0264 139.119 33.0264ZM138.929 27.416C139.085 27.2142 139.252 26.9701 139.432 26.6836C139.614 26.3971 139.757 26.1481 139.861 25.9365H140.848V26.0391C140.704 26.2507 140.491 26.5111 140.208 26.8203C139.925 27.1296 139.679 27.3688 139.471 27.5381H138.929V27.416Z" fill="black"/>
<path d="M144.397 33.5977L142.366 28.2461H143.235L144.388 31.4199C144.648 32.1621 144.801 32.6439 144.847 32.8652H144.886C144.921 32.6927 145.034 32.3363 145.223 31.7959C145.415 31.2523 145.843 30.069 146.507 28.2461H147.376L145.345 33.5977H144.397Z" fill="black"/>
<path d="M147.386 28.2461H148.255L149.427 31.2979C149.684 31.9945 149.843 32.4974 149.905 32.8066H149.944C149.987 32.6406 150.074 32.3574 150.208 31.957C150.345 31.5534 150.787 30.3164 151.536 28.2461H152.405L150.105 34.3398C149.877 34.9421 149.611 35.3685 149.305 35.6191C149.002 35.873 148.629 36 148.186 36C147.939 36 147.695 35.9723 147.454 35.917V35.2676C147.633 35.3066 147.833 35.3262 148.055 35.3262C148.611 35.3262 149.008 35.0137 149.246 34.3887L149.544 33.627L147.386 28.2461Z" fill="black"/>
</svg>
